<svg xmlns="http://www.w3.org/2000/svg" viewBox="0 0 150 420" role="img" aria-labelledby="title">
  <title id="title">Tonic water bottle</title>
  <defs>
    <linearGradient id="glass" x1="0" x2="1"><stop stop-color="#dce9ec" stop-opacity=".8"/><stop offset=".25" stop-color="#fff" stop-opacity=".5"/><stop offset=".6" stop-color="#bcd5dc" stop-opacity=".7"/><stop offset=".85" stop-color="#fff" stop-opacity=".7"/><stop offset="1" stop-color="#b0cbd2" stop-opacity=".7"/></linearGradient>
  </defs>
  <ellipse cx="75" cy="406" rx="45" ry="7" fill="#3f5d66" opacity=".18"/>
  <path d="M48 43h54v62c0 18 23 35 30 54 4 11 3 27 3 49l5 161c1 23-16 34-39 36H49c-23-2-40-13-39-36l5-161c0-22-1-38 3-49 7-19 30-36 30-54z" fill="url(#glass)" stroke="#9bb3ba" stroke-width="2"/>
  <rect x="43" y="17" width="64" height="42" rx="5" fill="#adc1c6"/>
  <path d="M47 24h56M47 32h56M47 40h56M47 48h56" stroke="#728a91"/>
  <rect x="27" y="164" width="96" height="145" rx="8" fill="#eef2ea" stroke="#87a4a9" stroke-width="3"/>
  <circle cx="75" cy="210" r="34" fill="#204e75"/>
  <circle cx="75" cy="210" r="25" fill="#d8e7e7"/>
  <path d="M75 187c13 14 15 27 0 47-15-20-13-33 0-47z" fill="#32749b"/>
  <text x="75" y="268" text-anchor="middle" fill="#244c60" font-family="Arial,sans-serif" font-size="17" font-weight="800">TONIC</text>
  <text x="75" y="285" text-anchor="middle" fill="#5c747e" font-family="Arial,sans-serif" font-size="8" letter-spacing="2">WATER</text>
  <path d="M31 67h13v293c0 17 6 30 15 38" fill="none" stroke="#fff" stroke-width="8" opacity=".55"/>
</svg>
